<svg width="49" height="49" viewBox="0 0 49 49" fill="none" xmlns="http://www.w3.org/2000/svg">
<circle cx="24" cy="24" r="23.5" fill="white"/>
<circle cx="24" cy="24" r="23.5" fill="#6366F1" fill-opacity="0.06"/>
<circle cx="24" cy="24" r="23.5" stroke="#6366F1"/>
<g clip-path="url(#clip0_2571_2280)">
<path d="M35.4129 22.6116V30.1576C35.4129 30.3898 35.3206 30.6125 35.1566 30.7768C34.9923 30.9408 34.7696 31.0331 34.5374 31.0331H13.5259C13.2937 31.0331 13.071 30.9408 12.9068 30.7768C12.7426 30.6125 12.6504 30.3898 12.6504 30.1576V16.1499C12.6504 15.9177 12.7426 15.695 12.9068 15.5308C13.071 15.3667 13.2937 15.2744 13.5259 15.2744H19.726" stroke="#6366F1" stroke-width="2" stroke-linecap="round" stroke-linejoin="round"/>
<path d="M22.2803 31.0332L20.5293 35.4106" stroke="#6366F1" stroke-width="2" stroke-linecap="round" stroke-linejoin="round"/>
<path d="M25.7832 31.0332L27.5342 35.4106" stroke="#6366F1" stroke-width="2" stroke-linecap="round" stroke-linejoin="round"/>
<path d="M18.7783 35.4102H29.2841" stroke="#6366F1" stroke-width="2" stroke-linecap="round" stroke-linejoin="round"/>
<path d="M27.2832 12.0459C28.8549 12.0459 30.1296 13.3199 30.1299 14.8916C30.1299 16.4635 28.8551 17.7383 27.2832 17.7383C25.7115 17.738 24.4375 16.4633 24.4375 14.8916C24.4377 13.3201 25.7117 12.0461 27.2832 12.0459Z" stroke="#6366F1" stroke-width="2" stroke-linecap="round" stroke-linejoin="round"/>
<path d="M27.2842 20.3311C28.2769 20.3311 29.2439 20.6464 30.0459 21.2314C30.8479 21.8165 31.4439 22.6415 31.7471 23.5869C31.8444 23.891 31.7907 24.2235 31.6025 24.4814C31.4144 24.7394 31.1142 24.8915 30.7949 24.8916H23.7734C23.4541 24.8916 23.1541 24.7394 22.9658 24.4814C22.7776 24.2235 22.7239 23.891 22.8213 23.5869C23.1244 22.6416 23.7196 21.8165 24.5215 21.2314C25.3235 20.6464 26.2914 20.3311 27.2842 20.3311Z" stroke="#6366F1" stroke-width="2" stroke-linecap="round" stroke-linejoin="round"/>
</g>
<defs>
<clipPath id="clip0_2571_2280">
<rect width="26.4" height="26.4" fill="white" transform="translate(11 11)"/>
</clipPath>
</defs>
</svg>
